<?xml version="1.0" encoding="UTF-8" standalone="no"?>
<svg width="190px" height="60px" viewBox="0 0 167 46" version="1.1" xmlns="http://www.w3.org/2000/svg" xmlns:xlink="http://www.w3.org/1999/xlink">
    <!-- Generator: sketchtool 3.8.2 (29753) - http://www.bohemiancoding.com/sketch -->
    <title>7430B297-7677-4046-94B6-E087FEA604C9</title>
    <desc>Created with sketchtool.</desc>
    <defs></defs>
    <g id="Head-Logo-resoultion-changes" stroke="none" stroke-width="1" fill="none" fill-rule="evenodd">
        <g id="Logo-Header-stepdowns" transform="translate(-312.000000, -747.000000)">
            <g id="Group-2" transform="translate(30.000000, 707.000000)">
                <g id="TOP-NAV-1280" transform="translate(0.000000, 24.000000)">
                    <g id="Group-4" transform="translate(282.000000, 14.000000)">
                        <g id="logo-head-costar">
                            <g id="Group">
                                <g id="CoStar-logo-1280" transform="translate(0.000000, 2.000000)">
                                    <g id="Group-3">
                                        <path d="M6.58039007,10.0248056 L21.7946579,14.2198122 C22.0996667,14.3024883 22.4898566,14.1697122 22.6708623,13.9185553 L28.231851,6.28887087 C28.4109752,6.02957553 28.3477156,5.67446673 28.0877968,5.49408447 L20.2107185,0.2136892 C19.9539393,0.0427034667 19.5393229,0.0514654 19.2850375,0.2330946 L6.4933274,9.52187953 C6.24030013,9.7091422 6.27975667,9.9358614 6.58039007,10.0248056 L6.58039007,10.0248056 Z M31.3909455,3.0790418 L32.1011742,18.8432183 C32.1111942,19.1557421 32.3629745,19.4858121 32.6579633,19.5822601 L41.6316972,22.5127539 C41.9354591,22.602945 42.253004,22.4300889 42.3444421,22.1307135 L44.9317174,13.0066574 C45.0168985,12.7116575 44.8797359,12.3170921 44.6267086,12.1329579 L31.8406319,2.836658 C31.5844762,2.6556634 31.3815489,2.76275493 31.3909455,3.0790418 L31.3909455,3.0790418 Z M45.6632442,24.5206951 L30.8899009,30.0672883 C30.594901,30.1756379 30.3606668,30.5144698 30.3606668,30.8251121 L30.3456368,40.2648316 C30.3537753,40.5798604 30.6130706,40.8310173 30.9293575,40.8235023 L40.4022655,40.4652539 C40.7135312,40.4545993 41.0417196,40.2028301 41.1400492,39.9059597 L46.0308891,24.8745681 C46.1248322,24.5739347 45.9569861,24.4123455 45.6632442,24.5206951 L45.6632442,24.5206951 Z M29.6779931,44.724767 L19.8380747,32.3871299 C19.644544,32.1409941 19.2468391,32.0201084 18.9524737,32.1153095 L9.97121373,35.0182483 C9.67371993,35.1228459 9.5158938,35.4466478 9.61985687,35.7472701 L12.8854305,44.6489935 C12.9931567,44.9389723 13.3344935,45.1744646 13.6482754,45.1744646 L29.4556493,45.1851081 C29.7706892,45.1807215 29.8715238,44.9734189 29.6779931,44.724767 L29.6779931,44.724767 Z M5.02714533,35.6952885 L0.150088467,20.6563819 C0.0536292667,20.3588881 0.173256933,19.9624301 0.417522267,19.7707809 L7.871211,13.9104169 C8.1229802,13.7200146 8.48185207,13.7701257 8.67225433,14.0218949 L14.2088165,21.6641044 C14.3923272,21.9152613 14.3979607,22.3292431 14.225728,22.59042 L5.53445793,35.7635581 C5.35407567,36.0215954 5.1286034,35.9915354 5.02714533,35.6952885 L5.02714533,35.6952885 Z" id="Fill-1" fill="#24335A"></path>
                                        <path d="M162.814089,24.0628701 L163.328895,24.0628701 L163.328895,21.7160971 C163.328895,21.6227775 163.326445,21.4762183 163.321435,21.2764195 C163.315201,21.0772553 163.31264,20.9282022 163.31264,20.8311195 L163.31264,20.7096103 L164.458817,24.0628701 L164.991769,24.0628701 L166.127258,20.7096103 C166.127258,20.9244391 166.126033,21.1261083 166.122248,21.3140056 C166.118574,21.5012683 166.116013,21.6353025 166.116013,21.7160971 L166.116013,24.0628701 L166.630262,24.0628701 L166.630262,20.0876912 L165.864289,20.0876912 L164.728689,23.448466 L163.586409,20.0876912 L162.814089,20.0876912 L162.814089,24.0628701 L162.814089,24.0628701 Z M159.110141,20.0876912 L159.110141,20.5611807 L160.44859,20.5611807 L160.44859,24.0628701 L160.992787,24.0628701 L160.992787,20.5611807 L162.333129,20.5611807 L162.333129,20.0876912 L159.110141,20.0876912 L159.110141,20.0876912 Z M137.882103,28.1501506 L132.618597,29.8017249 C131.564493,30.1324183 130.965074,30.736179 130.965074,31.8798173 C130.965074,33.5933931 132.045453,34.4652222 133.703985,34.4652222 C135.474519,34.4652222 136.46906,33.6842077 137.882103,32.6013241 L137.882103,28.1501506 L137.882103,28.1501506 Z M143.270191,34.4232607 C143.375401,34.740171 143.570234,35.2274325 143.647277,35.4503997 C142.702725,36.2821377 141.812726,36.6328711 140.801263,36.6328711 C139.236807,36.6328711 138.455803,35.5493639 137.971615,33.89465 C136.860508,35.1284794 135.145752,36.6328711 132.346721,36.6328711 C129.371115,36.6328711 127.775374,34.8579171 127.775374,32.5111329 C127.775374,29.7121684 129.762006,29.0495347 132.078073,28.3925344 L137.882103,26.6739485 L137.882103,26.0432563 C137.882103,23.5762321 136.739711,21.6515794 134.153661,21.6515794 C132.467629,21.6515794 131.655897,22.3449077 131.655897,23.8781125 C131.655897,24.1806163 131.716017,24.7229989 131.805641,25.3204915 L129.307877,25.6223718 C128.888262,25.2014984 128.646557,24.7229989 128.646557,23.9983636 C128.646557,21.5307048 131.354629,20.0864443 134.724801,20.0864443 C138.425075,20.0864443 140.890218,21.6221429 140.890218,25.8635087 L140.890218,32.479826 C140.890218,33.8019539 141.401906,34.5228372 142.305042,34.5228372 C142.507335,34.5228372 142.897558,34.4908957 143.270191,34.4232607 L143.270191,34.4232607 Z M154.817461,20.0864443 C152.620966,20.0864443 151.266262,22.1952201 149.853331,24.6929389 L150.002406,20.0864443 L148.951419,20.0864443 L144.589825,21.5908359 L144.589825,22.3123427 L146.843879,23.3670368 L146.843879,33.443082 C146.843879,34.8272225 145.823621,34.9781683 144.439525,35.159174 L144.439525,36.3322488 L152.861446,36.3322488 L152.861446,35.159174 C150.635559,34.9180371 149.853331,34.8272225 149.853331,33.3240889 L149.853331,26.1027529 C151.870691,23.7584848 153.131429,23.3056587 155.058498,23.3056587 L156.291069,23.3056587 L156.291069,20.5073177 C155.990469,20.2668154 155.538901,20.0864443 154.817461,20.0864443 L154.817461,20.0864443 Z M124.60371,34.4802522 C122.767378,34.4802522 121.837299,33.5188666 121.837299,31.3530993 L121.837299,22.0417693 L126.529554,22.0417693 L126.529554,20.3889481 L121.837299,20.3889481 L121.837299,16.9573987 L120.934831,16.9573987 C119.397875,18.8820514 118.10574,20.0269366 116.510556,20.9889457 L116.510556,22.0417693 L118.827848,22.0417693 L118.827848,32.3614453 C118.827848,35.4591728 120.902879,36.6328711 123.188218,36.6328711 C125.015198,36.6328711 126.283507,35.8155397 127.073195,35.0476848 C126.937368,34.7470625 126.780722,34.4508157 126.648569,34.0969538 C125.963424,34.371268 125.293865,34.4802522 124.60371,34.4802522 L124.60371,34.4802522 Z M70.4387296,34.7990441 C64.3341114,34.7990441 61.6835765,29.3808515 61.6835765,23.8186048 C61.6835765,18.7035507 63.8712653,14.4308779 69.891337,14.4308779 C73.3466783,14.4308779 75.6652729,15.7254508 77.0187189,19.6968778 L78.1554433,19.6968778 L77.982654,14.5830706 C76.5734189,13.7118761 74.1539897,12.5688613 70.0936297,12.5688613 C63.3827458,12.5688613 57.9106902,17.3782832 57.9106902,25.0499292 C57.9106902,31.1282505 62.3180206,36.6328711 69.8061559,36.6328711 C73.5195345,36.6328711 76.1400094,35.8794227 78.5313047,34.8272225 L79.1644573,29.1397258 L77.9688487,29.1397258 C76.6141224,32.8737679 74.9017935,34.7990441 70.4387296,34.7990441 L70.4387296,34.7990441 Z M94.4726793,29.0827231 C94.4726793,25.2014984 92.3675887,21.9515893 88.7576053,21.9515893 C85.7513827,21.9515893 84.2457107,24.3597405 84.2457107,27.6390861 C84.2457107,31.5190639 86.3519147,34.767726 89.9620093,34.767726 C92.9676753,34.767726 94.4726793,32.3614453 94.4726793,29.0827231 L94.4726793,29.0827231 Z M97.6637153,28.0599706 C97.6637153,33.3240889 93.6904513,36.6328711 89.0588733,36.6328711 C84.3063873,36.6328711 81.057124,33.2946524 81.057124,28.6605917 C81.057124,23.3958499 85.026714,20.0864443 89.6595167,20.0864443 C94.413784,20.0864443 97.6637153,23.4259099 97.6637153,28.0599706 L97.6637153,28.0599706 Z M115.58738,29.9232341 C115.58738,34.2266015 111.594633,36.6328711 106.717565,36.6328711 C103.832807,36.6328711 101.298749,35.8193027 99.7944127,34.5867203 L99.5539327,28.959967 L100.668157,28.959967 C101.600685,32.2117576 103.646769,34.8579171 107.194851,34.8579171 C110.504234,34.8579171 112.725111,33.2946524 112.725111,30.7054955 C112.725111,28.4219709 110.925185,27.4267734 108.42809,26.4353278 L105.149323,25.1413673 C102.26078,23.9983636 99.7944127,22.6743431 99.7944127,18.8820514 C99.7944127,15.6077047 103.138866,12.5688613 107.799836,12.5688613 C110.513029,12.5688613 113.059557,13.3473597 114.596513,14.5517525 L114.596513,19.6655597 L113.543077,19.6655597 C112.760181,16.4168976 110.993989,14.3431918 107.501129,14.3431918 C104.703433,14.3431918 102.628403,15.8137604 102.628403,18.2231696 C102.628403,20.2085658 104.008157,21.1079499 106.322443,22.0117093 L109.841578,23.3958499 C113.179797,24.7229989 115.58738,26.0432563 115.58738,29.9232341 L115.58738,29.9232341 Z" id="Fill-2" fill="#0A0B09"></path>
                                    </g>
                                </g>
                            </g>
                        </g>
                    </g>
                </g>
            </g>
        </g>
    </g>
</svg>